<svg xmlns="http://www.w3.org/2000/svg" xmlns:xlink="http://www.w3.org/1999/xlink" width="1920" height="6572" viewBox="0 0 1920 6572"><defs><clipPath id="b"><rect width="1920" height="6572"/></clipPath></defs><g id="a" clip-path="url(#b)"><rect width="1920" height="6572" fill="#fff"/><circle cx="302.512" cy="302.512" r="302.512" transform="translate(1485.667 2983)" fill="#c3efc9"/><circle cx="191.512" cy="191.512" r="191.512" transform="translate(1109.667 154)" fill="#ff9a9a"/><circle cx="243.548" cy="243.548" r="243.548" transform="translate(1228.904 345.477)" fill="#bdeec4" opacity="0.88"/><path d="M1034.667,122.333C1146.167,1.667,894,2.333,982-60.333S1920,0,1920,0l2.659,1273.023s-52.023,75.882-532.687,199.456c-330.695,85.019-675.449,48.346-950.866,132.033C187.4,1682.119,0,1839.056,0,1839.056L-1.931,273.077S923.167,243,1034.667,122.333Z" transform="translate(0 972)" fill="#ff9a9a"/><g transform="translate(650.031 845.106) rotate(-16)"><g transform="translate(276 57.405)"><path d="M329.415,662.543a4.149,4.149,0,1,1,4.151,4.185A4.167,4.167,0,0,1,329.415,662.543Zm-24.434,4.184a4.185,4.185,0,1,0-4.151-4.186A4.168,4.168,0,0,0,304.981,666.727Zm14.287,65.1a14.448,14.448,0,0,0,13.57-9.609H305.7A14.449,14.449,0,0,0,319.268,731.823Zm-40.125-45.74c0-1.367-3.889-31.35-3.889-31.35s-3.5-1.083-3.833-4.5,1.417-6.583,5.167-7.25,6.083,1.075,6.833,4.658-1.917,6.425-1.917,6.425l3.57,23.685a12.928,12.928,0,0,1,2.25-.472V665.8s1.111-20.925,18.374-27.434a43.65,43.65,0,0,1,13.865-2.861,43.622,43.622,0,0,1,13.864,2.86C350.692,644.872,351.8,665.8,351.8,665.8v11.48a12.71,12.71,0,0,1,2.449.365l2.25-23.575a6.628,6.628,0,0,1-2.25-5.667c.5-3.417,2.417-5.917,6.25-5.417s6,2.742,5.417,6.742-3.2,4.575-3,5.008c.387.838-2.938,30.006-2.938,31.348.021,3.652-2.312,8.985-8.177,8.8v5.513c.031.446.068.887.068,1.344,0,.483-.031.961-.068,1.439v.128H351.8a19.159,19.159,0,0,1-16.894,17.545l.007.125h-30.7l.01-.125A19.158,19.158,0,0,1,287.329,703.3h-.005v-.128c-.034-.478-.068-.956-.068-1.439,0-.455.034-.9.068-1.344,0,0,.014-5.328,0-5.512C281.337,694.4,279.143,690.484,279.143,686.083Zm49.654-.443a2.664,2.664,0,1,0-2.663,2.688A2.675,2.675,0,0,0,328.8,685.64Zm6.556,0a2.664,2.664,0,1,0-2.663,2.688A2.675,2.675,0,0,0,335.353,685.64Zm6.559,0a2.664,2.664,0,1,0-2.663,2.688A2.675,2.675,0,0,0,341.912,685.64Zm-44.772-22.322c0,7.129,5.534,7.6,5.534,7.6,1.926.614,6,.309,7.837,0,1.695-.288,7.913-.83,8.9-.919.038,0,.1.01.148.012s.112-.009.146-.012c.991.087,7.207.63,8.9.919,1.845.309,5.911.614,7.838,0,0,0,5.532-.465,5.532-7.6,0,0,0-7.905-5.532-12.71-5.365-4.66-13.43-5.671-16.594-5.731v-.005c-.045,0-.1,0-.148,0s-.1,0-.146,0-.1,0-.148,0-.1,0-.147,0v.005c-3.161.06-11.228,1.071-16.593,5.731C297.141,655.413,297.141,663.318,297.141,663.318Z" transform="translate(-276 -635.503)" fill="#3e3e3e"/></g><g transform="translate(288.449 30.678)"><g transform="translate(0)"><path d="M453.135,370.264a1.333,1.333,0,0,0-2.571.7c.923,3.375,5.914,6.991,6.48,7.393a1.333,1.333,0,1,0,1.542-2.176C456.749,374.882,453.644,372.124,453.135,370.264Z" transform="translate(-450.517 -361.546)" fill="#3e3e3e"/><path d="M825.183,260.87a1.332,1.332,0,0,0-.934,1.637c.507,1.854-.76,5.812-1.678,7.873a1.333,1.333,0,0,0,2.434,1.086c.282-.634,2.737-6.287,1.814-9.662A1.332,1.332,0,0,0,825.183,260.87Z" transform="translate(-795.925 -260.823)" fill="#3e3e3e"/><path d="M649.7,315.1a1.332,1.332,0,0,0-.934,1.637l2.11,7.712a1.333,1.333,0,0,0,2.571-.7l-2.11-7.712A1.332,1.332,0,0,0,649.7,315.1Z" transform="translate(-634.583 -311.184)" fill="#3e3e3e"/></g></g><g transform="translate(276.815 13)"><path d="M521.036,512.531l-33.293,9.681a1.157,1.157,0,0,0-.788,1.432l.937,3.238a4.718,4.718,0,0,0,5.848,3.217l26.459-7.694a4.722,4.722,0,0,0,3.212-5.846l-.943-3.241A1.155,1.155,0,0,0,521.036,512.531Z" transform="translate(-472.68 -476.855)" fill="#3e3e3e"/><path d="M321.008,14.446a11.993,11.993,0,0,0-2.057.822A13.861,13.861,0,0,0,298.059,30.75a1.156,1.156,0,0,1-2.22.646,15.968,15.968,0,0,1-.366-7.389,1.156,1.156,0,0,0-1.72-1.207,12.685,12.685,0,0,0,4.024,23.445l2.634,9.1a1.154,1.154,0,0,0,1.433.788l33.287-9.68a1.155,1.155,0,0,0,.787-1.433l-2.651-9.116a12.709,12.709,0,0,0-12.261-21.462ZM308.3,46.764a1.158,1.158,0,0,1-1.608.3c-.5-.341-4.876-3.408-5.723-6.323a1.156,1.156,0,0,1,2.22-.646c.467,1.607,3.2,3.956,4.811,5.06A1.158,1.158,0,0,1,308.3,46.764Zm9.036-3.559a1.156,1.156,0,1,1-2.22.646l-1.937-6.66a1.156,1.156,0,0,1,2.22-.646Zm8.834-1.8a1.156,1.156,0,0,1-2.127-.909c.768-1.8,1.812-5.251,1.346-6.852a1.156,1.156,0,0,1,2.22-.646C328.453,35.909,326.4,40.846,326.165,41.4Z" transform="translate(-287.422 -13)" fill="#3e3e3e"/></g></g><circle cx="152" cy="152" r="152" transform="translate(1346 949)" fill="#ff9a9a"/><circle cx="463.012" cy="463.012" r="463.012" transform="translate(-476.333 3872)" fill="#ff9a9a"/><circle cx="367.048" cy="367.048" r="367.048" transform="translate(225.904 4154.477)" fill="#bdeec4" opacity="0.9"/><path d="M2182,5454s360,336,978,346.588,944,228.292,944,228.292V6838.8H2182Z" transform="translate(-2184 -264)" fill="#ff9a9a"/></g></svg>