<svg xmlns="http://www.w3.org/2000/svg" width="586.156" height="643.838" viewBox="0 0 586.156 643.838">
  <g id="Logo_Bionic_Food" data-name="Logo Bionic Food" transform="translate(-271.381 -13)">
    <g id="Groupe_1" data-name="Groupe 1" transform="translate(271.381 288.039)">
      <path id="Robo.to" d="M630.843,802.983a25.7,25.7,0,1,1,25.714,25.924A25.808,25.808,0,0,1,630.843,802.983ZM479.5,828.9a25.923,25.923,0,1,0-25.714-25.928A25.813,25.813,0,0,0,479.5,828.9ZM319.462,948.791c0-8.47-24.089-194.177-24.089-194.177s-21.68-6.71-23.744-27.873,8.775-40.776,32-44.906,37.679,6.659,42.325,28.854-11.871,39.8-11.871,39.8l22.111,146.7s8.418-2.56,13.935-2.926V823.146s6.883-129.608,113.806-169.924c31.76-11.969,60.757-16.81,85.882-17.719,25.143.91,54.141,5.75,85.87,17.713C762.631,693.532,769.522,823.14,769.522,823.14v71.108a78.731,78.731,0,0,1,15.17,2.259l13.936-146.022s-17.033-13.936-13.936-35.1,14.969-36.647,38.712-33.551,37.162,16.982,33.549,41.758-19.794,28.335-18.582,31.021c2.4,5.19-18.2,185.857-18.2,194.17.131,22.617-21.168,53.385-50.648,54.507-11.395,1.54-399.313,1.144-399.4.005C333.052,1000.305,319.462,976.049,319.462,948.791Zm307.552-2.745a16.5,16.5,0,1,0-16.493,16.647A16.567,16.567,0,0,0,627.013,946.045Zm40.609,0a16.5,16.5,0,1,0-16.492,16.647A16.566,16.566,0,0,0,667.623,946.045Zm40.626,0a16.5,16.5,0,1,0-16.493,16.647A16.567,16.567,0,0,0,708.249,946.045ZM430.938,807.784c0,44.156,34.274,47.044,34.274,47.044,11.928,3.8,37.134,1.915,48.539,0,10.5-1.786,49.011-5.143,55.144-5.689.234.023.6.063.915.077.326-.016.691-.054.907-.077,6.139.538,44.641,3.9,55.149,5.689,11.425,1.915,36.612,3.8,48.547,0,0,0,34.263-2.88,34.263-47.044,0,0,0-48.963-34.263-78.724-33.233-28.864-83.181-35.126-102.783-35.5v-.032c-.279,0-.62.023-.915.023s-.643-.023-.907-.023-.627.023-.915.023-.639-.023-.91-.023v.032c-19.582.372-69.545,6.634-102.773,35.5C430.938,758.821,430.938,807.784,430.938,807.784Z" transform="translate(-271.381 -635.503)" fill="#fff"/>
    </g>
    <g id="Groupe_4" data-name="Groupe 4" transform="translate(377.099 122.495)">
      <g id="Groupe_3" data-name="Groupe 3" transform="translate(0)">
        <g id="Groupe_2" data-name="Groupe 2">
          <path id="Tracé_3" data-name="Tracé 3" d="M466.735,375.361a8.254,8.254,0,1,0-15.922,4.356c5.72,20.906,36.633,43.3,40.139,45.792a8.258,8.258,0,1,0,9.549-13.476C489.118,403.966,469.887,386.882,466.735,375.361Z" transform="translate(-450.517 -321.362)" fill="#fff"/>
          <path id="Tracé_4" data-name="Tracé 4" d="M839.346,261.118a8.248,8.248,0,0,0-5.783,10.14c3.142,11.483-4.708,36-10.391,48.762a8.256,8.256,0,0,0,15.078,6.729c1.749-3.93,16.955-38.942,11.235-59.848A8.249,8.249,0,0,0,839.346,261.118Z" transform="translate(-658.123 -260.823)" fill="#fff"/>
          <path id="Tracé_5" data-name="Tracé 5" d="M654.8,315.348a8.249,8.249,0,0,0-5.783,10.14l13.069,47.766a8.254,8.254,0,0,0,15.923-4.357l-13.07-47.766A8.249,8.249,0,0,0,654.8,315.348Z" transform="translate(-561.149 -291.093)" fill="#fff"/>
        </g>
      </g>
    </g>
    <g id="Groupe_8" data-name="Groupe 8" transform="translate(305.039 13)">
      <path id="Tracé_8" data-name="Tracé 8" d="M698.284,512.772,492.072,572.738a7.164,7.164,0,0,0-4.878,8.869l5.8,20.056a29.221,29.221,0,0,0,36.22,19.929L693.1,573.935A29.246,29.246,0,0,0,713,537.724l-5.838-20.076A7.157,7.157,0,0,0,698.284,512.772Z" transform="translate(-398.771 -291.799)" fill="#fff"/>
      <path id="Tracé_9" data-name="Tracé 9" d="M495.452,21.954a74.291,74.291,0,0,0-12.742,5.089,85.855,85.855,0,0,0-129.4,95.9,7.16,7.16,0,0,1-13.751,4,98.9,98.9,0,0,1-2.268-45.765A7.162,7.162,0,0,0,326.64,73.7a78.568,78.568,0,0,0,24.926,145.218L367.881,275.3a7.151,7.151,0,0,0,8.877,4.883l206.178-59.957a7.156,7.156,0,0,0,4.877-8.875l-16.419-56.461A78.72,78.72,0,0,0,495.452,21.954ZM416.714,222.129a7.174,7.174,0,0,1-9.959,1.862c-3.076-2.113-30.2-21.111-35.45-39.166a7.161,7.161,0,0,1,13.752-4c2.893,9.951,19.811,24.5,29.8,31.344A7.173,7.173,0,0,1,416.714,222.129Zm55.969-22.043a7.16,7.16,0,1,1-13.751,4l-12-41.253a7.16,7.16,0,0,1,13.751-4ZM527.4,188.908a7.162,7.162,0,0,1-13.172-5.629c4.754-11.148,11.223-32.524,8.339-42.441a7.16,7.16,0,0,1,13.751-4C541.568,154.894,528.862,185.475,527.4,188.908Z" transform="translate(-287.422 -13)" fill="#fff"/>
    </g>
  </g>
</svg>
